<?xml version="1.0" encoding="utf-8"?>
<!-- Generator: Adobe Illustrator 14.0.0, SVG Export Plug-In . SVG Version: 6.00 Build 43363)  -->
<!DOCTYPE svg PUBLIC "-//W3C//DTD SVG 1.1//EN" "http://www.w3.org/Graphics/SVG/1.1/DTD/svg11.dtd">
<svg version="1.1" id="Layer_1" xmlns="http://www.w3.org/2000/svg" xmlns:xlink="http://www.w3.org/1999/xlink" x="0px" y="0px"
	 width="602.521px" height="161.345px" viewBox="0 0 602.521 161.345" enable-background="new 0 0 602.521 161.345"
	 xml:space="preserve">
<g>
	<path fill="#9B4410" d="M192.379,56.566c5.438,0,10.047,1.375,13.828,4.125c2,1.469,3.398,3.148,4.195,5.039
		s1.195,4.492,1.195,7.805l-0.094,6.984c0,4.844,0.344,7.984,1.031,9.422c0.344,0.688,0.672,1.125,0.984,1.313
		c0.312,0.188,0.968,0.359,1.969,0.516c1,0.156,1.5,0.813,1.5,1.969c0,1.5-0.602,3.063-1.805,4.688
		c-1.203,1.625-2.758,2.984-4.664,4.078c-2.344,1.375-4.797,2.063-7.359,2.063c-3.281,0-5.875-1.125-7.781-3.375
		c-0.656-0.813-1.266-1.219-1.828-1.219c-0.625,0-1.453,0.391-2.484,1.172c-3.125,2.281-6.672,3.422-10.641,3.422
		c-4.094,0-7.406-0.875-9.938-2.625c-1.657-1.156-2.969-2.664-3.938-4.523c-0.969-1.859-1.453-3.805-1.453-5.836
		c0-3.25,1.313-6.125,3.938-8.625c4.094-3.938,10.219-5.922,18.375-5.953c1.812,0,2.953-0.18,3.422-0.539s0.703-1.195,0.703-2.508
		c0-3.313-0.344-5.711-1.031-7.195c-0.688-1.484-1.813-2.227-3.375-2.227c-0.938,0-1.774,0.281-2.508,0.844
		c-0.734,0.563-1.648,1.594-2.742,3.094c-2.782,3.969-5.688,5.953-8.719,5.953c-1.531,0-2.782-0.453-3.75-1.359
		c-0.969-0.906-1.453-2.094-1.453-3.563c0-1.5,0.602-3,1.805-4.5c1.203-1.5,2.836-2.813,4.898-3.938
		C180.316,58.066,186.222,56.566,192.379,56.566z M189.238,83.707c-1.375,0-2.571,0.563-3.586,1.688
		c-1.016,1.125-1.523,2.469-1.523,4.031c0,1.5,0.359,2.711,1.078,3.633c0.719,0.922,1.671,1.383,2.859,1.383
		c2.5,0,3.75-2.109,3.75-6.328c0-1.719-0.18-2.875-0.539-3.469C190.918,84.051,190.238,83.738,189.238,83.707z"/>
	<path fill="#9B4410" d="M242.908,56.848c1.906,0,3.094,0.164,3.563,0.492s0.703,1.148,0.703,2.461c0,1.156,0.375,1.734,1.125,1.734
		c0.312,0,1.359-0.594,3.141-1.781c1.343-0.906,3.054-1.664,5.133-2.273c2.078-0.609,3.961-0.914,5.648-0.914
		c3.968,0,7.515,1.375,10.641,4.125c2.375,2.094,4.219,4.734,5.531,7.922c1.375,3.344,2.063,6.859,2.063,10.547
		c0,7.875-2.657,14.359-7.969,19.453c-4.094,3.969-8.75,5.953-13.969,5.953c-2.657,0-5.391-0.625-8.203-1.875
		c-0.563-0.25-1.016-0.375-1.359-0.375c-0.938,0-1.406,0.938-1.406,2.813c0,2.469,0.828,4.25,2.484,5.344
		c1.531,1.031,2.445,1.727,2.742,2.086c0.296,0.359,0.445,0.961,0.445,1.805c0,1.875-1.047,3.32-3.141,4.336
		c-2.094,1.016-5.047,1.523-8.859,1.523c-6.782,0-12.719-1.359-17.813-4.078c-2.594-1.375-3.891-3.078-3.891-5.109
		c0-0.938,0.195-1.648,0.586-2.133c0.39-0.484,1.148-0.992,2.273-1.523c1.625-0.75,2.617-2.109,2.977-4.078
		c0.359-1.969,0.633-7.625,0.82-16.969c-0.219-7.688-0.5-12-0.844-12.938c-0.125-0.313-0.305-0.516-0.539-0.609
		s-1.008-0.266-2.32-0.516c-1-0.188-1.813-0.648-2.438-1.383c-0.625-0.734-0.938-1.617-0.938-2.648c0-1.25,0.437-2.352,1.313-3.305
		c0.875-0.953,2.297-1.883,4.266-2.789C232.329,58.676,238.408,56.91,242.908,56.848z M247.548,74.566l-0.703,12.891
		c-0.032,0.531-0.047,1.047-0.047,1.547c0,0.969,0.422,1.75,1.266,2.344s1.969,0.891,3.375,0.891c4.313,0,6.469-3.547,6.469-10.641
		c0-4.594-0.907-7.828-2.719-9.703c-1.125-1.156-2.469-1.734-4.031-1.734C248.938,70.16,247.736,71.629,247.548,74.566z"/>
	<path fill="#9B4410" d="M327.047,82.301h-22.031c-0.97,0-1.453,0.422-1.453,1.266c0,2.031,1.102,3.945,3.305,5.742
		s4.57,2.695,7.102,2.695c1.5,0,3.164-0.289,4.992-0.867s3.335-1.289,4.523-2.133c1.062-0.75,1.905-1.125,2.531-1.125
		c0.812,0,1.608,0.5,2.391,1.5c0.78,1,1.172,2.031,1.172,3.094c0,2.25-1.406,4.422-4.219,6.516
		c-4.969,3.719-10.704,5.578-17.203,5.578c-6.563,0-12.063-1.906-16.5-5.719c-2.156-1.875-3.938-4.141-5.344-6.797
		c-1.844-3.531-2.766-7.25-2.766-11.156c0-5.25,1.594-9.969,4.781-14.156c2.75-3.625,6.25-6.328,10.5-8.109
		c3.188-1.344,6.64-2.016,10.36-2.016c5.937,0,10.983,1.688,15.141,5.063c2.093,1.688,3.78,3.688,5.063,6
		c1.468,2.625,2.203,5.188,2.203,7.688c0,2.031-0.422,3.695-1.266,4.992S328.39,82.301,327.047,82.301z M306.234,73.535h4.734
		c1.999,0,3-0.922,3-2.766c0-1.688-0.485-3.063-1.453-4.125c-0.97-1.063-2.235-1.594-3.797-1.594c-1.751,0-3.126,0.688-4.125,2.063
		c-0.938,1.281-1.406,2.578-1.406,3.891c0,0.938,0.226,1.594,0.68,1.969C304.319,73.348,305.109,73.535,306.234,73.535z"/>
	<path fill="#9B4410" d="M356.435,56.895c1.656,0,2.664,0.234,3.023,0.703c0.358,0.469,0.68,1.969,0.961,4.5
		c0.156,1.375,0.64,2.063,1.453,2.063c0.625,0,1.219-0.453,1.781-1.359c2.5-3.906,5.766-5.859,9.797-5.859
		c2.843,0,5.172,0.922,6.984,2.766c0.874,0.906,1.594,2.07,2.156,3.492s0.844,2.789,0.844,4.102c0,1.469-0.345,2.977-1.031,4.523
		c-0.688,1.547-1.578,2.82-2.672,3.82c-2,1.906-4.453,2.859-7.359,2.859c-1.594,0-2.93-0.281-4.008-0.844s-2.492-1.703-4.242-3.422
		c-0.656-0.656-1.266-0.984-1.828-0.984c-0.875,0-1.446,0.492-1.711,1.477c-0.266,0.984-0.398,3.055-0.398,6.211
		c0,4.719,0.171,7.938,0.516,9.656c0.218,0.938,0.522,1.586,0.914,1.945c0.391,0.359,1.226,0.727,2.508,1.102
		c2.813,0.844,4.219,2.313,4.219,4.406c0,1.281-0.453,2.398-1.359,3.352c-0.907,0.953-2.109,1.586-3.609,1.898
		c-3,0.625-7.406,0.938-13.219,0.938c-5.531,0-9.734-0.484-12.609-1.453c-2.563-0.875-3.844-2.391-3.844-4.547
		c0-1.625,0.938-3.078,2.813-4.359c0.906-0.594,1.53-1.133,1.875-1.617c0.344-0.484,0.578-1.148,0.703-1.992
		c0.499-2.844,0.75-8.109,0.75-15.797c0-1.406-0.157-2.414-0.469-3.023c-0.313-0.609-0.938-1.102-1.875-1.477
		c-2.22-0.875-3.328-2.141-3.328-3.797c0-1.5,0.766-2.789,2.297-3.867c1.53-1.078,4.094-2.148,7.688-3.211
		C348.965,57.66,353.06,56.926,356.435,56.895z"/>
	<path fill="#9B4410" d="M415.026,68.895v15.844c0,1.875,0.461,3.406,1.383,4.594c0.921,1.188,2.102,1.781,3.539,1.781
		c1.219,0,2.828-0.563,4.828-1.688c0.469-0.281,0.938-0.422,1.406-0.422c0.75,0,1.437,0.453,2.063,1.359
		c0.625,0.906,0.938,1.891,0.938,2.953c0,1.938-1.063,3.797-3.188,5.578c-4.438,3.781-9.813,5.672-16.125,5.672
		c-5,0-9.017-1.414-12.047-4.242c-3.031-2.828-4.547-6.555-4.547-11.18V67.488c0-0.719-0.087-1.164-0.258-1.336
		c-0.172-0.172-0.617-0.258-1.336-0.258h-4.828c-0.907,0-1.483-0.148-1.734-0.445c-0.25-0.297-0.375-0.992-0.375-2.086v-2.063
		c0.031-0.938,0.392-1.625,1.078-2.063l21.469-13.5c0.531-0.281,1.188-0.422,1.969-0.422h3.797c0.78,0,1.305,0.18,1.57,0.539
		c0.265,0.359,0.398,1.07,0.398,2.133v6.328c0,0.938,0.147,1.547,0.445,1.828c0.297,0.281,0.93,0.422,1.898,0.422h8.672
		c1.155,0,1.905,0.211,2.25,0.633c0.344,0.422,0.516,1.32,0.516,2.695v2.766c0,1.5-0.219,2.539-0.656,3.117
		c-0.438,0.578-1.235,0.867-2.391,0.867h-8.484c-0.875,0-1.47,0.156-1.781,0.469C415.183,67.426,415.026,68.02,415.026,68.895z"/>
	<path fill="#9B4410" d="M457.211,59.285v25.406c0,5.438,1.797,8.156,5.391,8.156c0.906,0,1.797-0.258,2.672-0.773
		s1.484-1.148,1.828-1.898c0.688-1.5,1.031-4.844,1.031-10.031c0-5.125-0.172-8.625-0.516-10.5
		c-0.125-0.781-0.344-1.352-0.656-1.711s-0.906-0.773-1.781-1.242c-1.781-0.938-2.672-2.125-2.672-3.563
		c0-1.938,1.531-3.281,4.594-4.031c5.813-1.438,11.547-2.156,17.203-2.156c3.156,0,4.734,1.672,4.734,5.016
		c0,0.344-0.016,1.047-0.047,2.109c-0.063,1.5-0.109,3.328-0.141,5.484v20.672c0,1.063,0.906,2.031,2.719,2.906
		c1.531,0.75,2.297,1.844,2.297,3.281c0,2.813-3.328,4.984-9.984,6.516c-3.906,0.906-7.688,1.359-11.344,1.359
		c-1.5,0-2.523-0.172-3.07-0.516s-0.867-1.016-0.961-2.016c-0.156-1.938-0.75-2.906-1.781-2.906c-0.375,0-0.719,0.086-1.031,0.258
		s-1.266,0.805-2.859,1.898c-3.156,2.156-6.547,3.234-10.172,3.234c-6,0-10.234-1.734-12.703-5.203
		c-2.094-2.906-3.141-7.797-3.141-14.672c0-2.563,0.016-4.75,0.047-6.563c0-1.063,0-1.781,0-2.156c0-2.688-0.242-4.664-0.727-5.93
		s-1.367-2.258-2.648-2.977c-1.219-0.625-1.992-1.125-2.32-1.5s-0.492-0.891-0.492-1.547c0-2.375,1.797-3.953,5.391-4.734
		c6.125-1.344,12.25-2.016,18.375-2.016C456.289,56.941,457.211,57.723,457.211,59.285z"/>
	<path fill="#9B4410" d="M518.381,56.895c1.656,0,2.664,0.234,3.023,0.703s0.68,1.969,0.961,4.5
		c0.156,1.375,0.641,2.063,1.453,2.063c0.625,0,1.219-0.453,1.781-1.359c2.5-3.906,5.766-5.859,9.797-5.859
		c2.844,0,5.172,0.922,6.984,2.766c0.875,0.906,1.594,2.07,2.156,3.492s0.844,2.789,0.844,4.102c0,1.469-0.344,2.977-1.031,4.523
		s-1.578,2.82-2.672,3.82c-2,1.906-4.453,2.859-7.359,2.859c-1.594,0-2.93-0.281-4.008-0.844s-2.492-1.703-4.242-3.422
		c-0.656-0.656-1.266-0.984-1.828-0.984c-0.875,0-1.445,0.492-1.711,1.477s-0.398,3.055-0.398,6.211
		c0,4.719,0.172,7.938,0.516,9.656c0.219,0.938,0.523,1.586,0.914,1.945s1.227,0.727,2.508,1.102
		c2.813,0.844,4.219,2.313,4.219,4.406c0,1.281-0.453,2.398-1.359,3.352s-2.109,1.586-3.609,1.898
		c-3,0.625-7.406,0.938-13.219,0.938c-5.531,0-9.734-0.484-12.609-1.453c-2.563-0.875-3.844-2.391-3.844-4.547
		c0-1.625,0.938-3.078,2.813-4.359c0.906-0.594,1.531-1.133,1.875-1.617s0.578-1.148,0.703-1.992c0.5-2.844,0.75-8.109,0.75-15.797
		c0-1.406-0.156-2.414-0.469-3.023s-0.938-1.102-1.875-1.477c-2.219-0.875-3.328-2.141-3.328-3.797c0-1.5,0.766-2.789,2.297-3.867
		s4.094-2.148,7.688-3.211C510.912,57.66,515.006,56.926,518.381,56.895z"/>
	<path fill="#9B4410" d="M590.004,82.301h-22.031c-0.969,0-1.453,0.422-1.453,1.266c0,2.031,1.102,3.945,3.305,5.742
		s4.57,2.695,7.102,2.695c1.5,0,3.164-0.289,4.992-0.867s3.336-1.289,4.523-2.133c1.063-0.75,1.906-1.125,2.531-1.125
		c0.813,0,1.609,0.5,2.391,1.5s1.172,2.031,1.172,3.094c0,2.25-1.406,4.422-4.219,6.516c-4.969,3.719-10.703,5.578-17.203,5.578
		c-6.563,0-12.063-1.906-16.5-5.719c-2.156-1.875-3.938-4.141-5.344-6.797c-1.844-3.531-2.766-7.25-2.766-11.156
		c0-5.25,1.594-9.969,4.781-14.156c2.75-3.625,6.25-6.328,10.5-8.109c3.188-1.344,6.641-2.016,10.359-2.016
		c5.938,0,10.984,1.688,15.141,5.063c2.094,1.688,3.781,3.688,5.063,6c1.469,2.625,2.203,5.188,2.203,7.688
		c0,2.031-0.422,3.695-1.266,4.992S591.348,82.301,590.004,82.301z M569.191,73.535h4.734c2,0,3-0.922,3-2.766
		c0-1.688-0.484-3.063-1.453-4.125s-2.234-1.594-3.797-1.594c-1.75,0-3.125,0.688-4.125,2.063c-0.938,1.281-1.406,2.578-1.406,3.891
		c0,0.938,0.227,1.594,0.68,1.969S568.066,73.535,569.191,73.535z"/>
</g>
<linearGradient id="SVGID_1_" gradientUnits="userSpaceOnUse" x1="130.0439" y1="108.5703" x2="130.0439" y2="81.3501">
	<stop  offset="0" style="stop-color:#A06810"/>
	<stop  offset="0.5467" style="stop-color:#9E5610"/>
	<stop  offset="1" style="stop-color:#9B4410"/>
</linearGradient>
<path fill="url(#SVGID_1_)" d="M106.417,108.57h41.622c3.537-8.383,5.521-17.577,5.632-27.221h-33.595
	C119.389,92.244,114.233,101.919,106.417,108.57z"/>
<path fill="#9B4410" d="M54.763,50.144H15.985c-3.561,7.666-5.809,16.059-6.473,24.898h32.826
	C43.292,65.218,47.89,56.464,54.763,50.144z"/>
<linearGradient id="SVGID_2_" gradientUnits="userSpaceOnUse" x1="32.6001" y1="108.5703" x2="32.6001" y2="81.3501">
	<stop  offset="0" style="stop-color:#A06810"/>
	<stop  offset="0.5467" style="stop-color:#9E5610"/>
	<stop  offset="1" style="stop-color:#9B4410"/>
</linearGradient>
<path fill="url(#SVGID_2_)" d="M42.237,81.35H9.305c0.109,9.644,2.094,18.838,5.632,27.221h40.958
	C48.08,101.919,42.923,92.244,42.237,81.35z"/>
<path fill="#9B4410" d="M119.975,75.042h33.489c-0.664-8.839-2.911-17.232-6.473-24.898H107.55
	C114.422,56.464,119.021,65.218,119.975,75.042z"/>
<path fill="#9B4410" d="M81.156,39.853c8.879,0,17.061,2.972,23.617,7.967h41.084c-4.343-8.533-10.327-16.084-17.545-22.242H34.665
	c-7.217,6.158-13.202,13.709-17.545,22.242h40.421C64.096,42.824,72.277,39.853,81.156,39.853z"/>
<path fill="#A06810" d="M81.488,152.723c25.221,0,47.409-12.939,60.321-32.533H21.167C34.079,139.783,56.268,152.723,81.488,152.723
	z"/>
<path fill="#9B4410" d="M81.488,8.315c-16.738,0-32.134,5.711-44.38,15.271h88.761C113.623,14.027,98.227,8.315,81.488,8.315z"/>
</svg>
